# Blender 3.3.1
# www.blender.org
mtllib conveyor_stopper.mtl
o conveyor_stopper
v -4.250000 43.648911 -0.833204
v -4.250000 43.648911 5.407196
v -4.250000 43.063408 14.915897
v -4.250000 42.522110 15.167995
v -4.250000 42.150505 -1.949503
v -4.250000 44.759109 -2.504204
v -4.250000 43.489609 -2.504204
v -15.585022 43.489609 -2.504204
v -2.291992 54.490604 -2.504202
v -2.291992 56.825405 -2.504202
v -4.250000 50.237106 0.999998
v -1.893005 50.417908 -2.504202
v -1.317993 49.182602 -2.504204
v -2.549988 46.856506 -2.504204
v -1.070984 45.695404 -2.504204
v -4.250000 45.100006 9.999996
v -24.250000 50.237106 0.999998
v -24.250000 45.100006 9.999996
v -24.250000 43.063408 14.915897
v -24.250000 43.648911 -0.833204
v -24.250000 42.150505 -1.949503
v -24.250000 43.489609 -2.504204
v -24.250000 44.759109 -2.504204
v -1.776001 62.973007 -2.504202
v -1.776001 60.916706 -2.504202
v -4.250000 56.825306 0.999998
v -4.250000 63.413605 0.999998
v -4.940002 64.790108 0.999998
v -6.278015 65.100006 0.999998
v -19.377991 65.100006 0.999998
v -23.250000 65.100006 0.999998
v -24.250000 63.413605 0.999998
v -24.354980 67.619408 -2.504202
v -23.992981 68.229309 -2.504202
v -22.593018 68.229309 -2.504202
v -19.377991 68.678604 -2.504202
v -24.325012 66.424904 -2.504202
v -24.952026 64.254807 -2.504202
v -24.952026 65.948303 -2.504202
v -24.250000 63.413605 -0.833202
v -24.601013 45.424301 -2.504204
v -24.601013 60.140907 -2.504202
v -15.841980 68.678604 -2.504202
v -24.601013 63.413605 -2.504202
v -6.278015 68.678604 -2.504202
v -24.864014 63.413605 -2.504202
v -5.916992 68.594910 -2.504202
v -1.135010 68.594910 -2.504202
v -0.948975 68.223305 -2.504202
v -24.250000 42.522110 15.167995
v -4.250000 37.060608 16.999996
v -24.250000 37.060608 16.999996
v -32.478027 35.100006 16.999996
v -69.250000 30.472404 16.999996
v -19.377991 30.472404 16.999996
v -68.552002 25.266708 16.999996
v -68.321991 24.728607 16.999996
v -19.377991 23.884209 16.999996
v -57.445007 20.378105 16.999996
v -51.840027 18.279907 16.999996
v -12.828003 17.295906 16.999996
v -44.075989 16.002502 16.999996
v -6.278015 17.295906 16.999996
v -38.572998 15.477203 16.999996
v -32.478027 15.100006 16.999996
v -25.927979 15.100006 16.999996
v -24.250000 4.119484 16.999996
v -24.250000 -6.899994 16.999996
v -25.927979 -16.899994 16.999992
v -32.478027 -35.409897 16.999992
v -4.250000 -35.409897 16.999992
v -6.278015 23.884209 16.999996
v -13.942017 23.420708 16.770298
v -12.828003 30.472404 16.999996
v -4.250000 37.060608 11.999996
v -4.250000 40.100006 5.407196
v -24.250000 37.060608 11.999996
v -24.250000 40.100006 5.407196
v -4.250000 41.010208 0.803097
v -24.250000 41.010208 0.803097
v -4.250000 -35.409897 11.999992
v -32.478027 35.100006 11.999996
v -25.927979 15.100006 11.999996
v -65.228027 35.100006 11.999996
v -69.033997 34.316307 11.999996
v -69.033997 34.316307 16.999996
v -65.228027 35.100006 16.999996
v -69.250000 30.472404 11.999996
v -68.552002 25.266708 11.999996
v -68.321991 24.728607 11.999996
v -57.445007 20.378105 11.999996
v -51.840027 18.279907 11.999996
v -44.075989 16.002502 11.999996
v -38.572998 15.477203 11.999996
v -32.478027 15.100006 11.999996
v -24.250000 4.119484 11.999996
v -24.250000 -6.899994 11.999996
v -25.927979 -16.899994 11.999992
v -32.478027 -16.899994 11.999992
v -32.478027 -16.899994 16.999992
v -38.869995 -17.305588 16.999992
v -44.875977 -18.037292 16.999992
v -50.906982 -19.806488 16.999992
v -56.255005 -21.702194 16.999992
v -64.174011 -24.869492 16.999992
v -67.681030 -26.330795 16.999992
v -69.250000 -28.821686 16.999992
v -69.250000 -35.409897 16.999992
v -69.250000 -35.409897 11.999992
v -68.250000 -36.899994 16.999992
v -32.478027 -36.899994 16.999992
v -24.250000 -41.376892 16.388191
v -32.478027 -36.899994 11.999992
v -24.250000 -41.998199 11.647491
v -24.250000 -44.095993 -2.009808
v -24.250000 -43.269791 -0.306408
v -24.250000 -42.304688 2.023193
v -24.250000 -41.998199 5.407192
v -25.927979 -35.409897 11.999992
v -32.478027 -35.409897 11.999992
v -69.250000 -28.821686 11.999992
v -67.681030 -26.330795 11.999992
v -64.174011 -24.869492 11.999992
v -56.255005 -21.702194 11.999992
v -50.906982 -19.806488 11.999992
v -44.875977 -18.037292 11.999992
v -38.869995 -17.305588 11.999992
v -19.377991 -41.899994 5.407192
v -6.278015 -41.899994 5.407192
v -4.250000 -41.998199 5.407192
v -4.250000 -41.376892 16.388191
v -4.250000 -44.849487 14.949493
v -4.250000 -42.304688 2.023193
v -6.278015 -42.304688 2.023193
v -4.250000 -43.269791 -0.306408
v -4.250000 -44.095993 -2.009808
v -6.278015 -44.095993 -2.009808
v -23.039978 -45.289597 -2.504307
v -9.533020 -45.289597 -2.504307
v -24.497986 -49.389297 -2.504307
v -24.338013 -44.770691 -2.504307
v -24.250000 -48.586395 -0.833208
v -24.250000 -46.899994 5.407192
v -24.250000 -55.174591 -0.833208
v -24.497986 -54.381088 -2.504307
v -24.601013 -55.174591 -2.504307
v -24.601013 -60.080200 -2.504307
v -24.601013 -61.762894 -2.504307
v -24.250000 -61.762894 -0.833208
v -24.314026 -65.131104 -2.504307
v -6.278015 -45.289597 -2.504307
v -5.638977 -44.858093 -2.504307
v -3.807983 -44.858093 -2.504307
v -4.250000 -48.586395 -0.833208
v -3.039001 -49.473694 -2.504307
v -24.205017 -66.435089 -2.504307
v -20.807007 -66.899994 -2.504307
v -23.864014 -66.286392 -0.833208
v -19.377991 -66.899994 -0.833208
v -23.864014 -66.286392 0.999992
v -19.377991 -66.899994 0.999992
v -24.250000 -55.174591 0.999992
v -24.250000 -61.762894 0.999992
v -6.278015 -66.899994 0.999992
v -4.250000 -65.899994 0.999992
v -6.278015 -66.899994 -0.833208
v -1.851990 -66.279205 -2.504307
v -3.609985 -66.708405 -2.504307
v -2.291992 -63.228989 -2.504307
v -6.278015 -66.899994 -2.504307
v -2.291992 -58.975494 -2.504307
v -2.291992 -55.174591 -2.504307
v -13.692017 -66.899994 -2.504307
v -17.776978 -66.899994 -2.504307
v -2.840027 -51.649200 -2.504307
v -4.250000 -55.174591 0.999992
v -4.250000 -46.899994 5.407192
v -24.250000 -46.564499 10.809891
v -24.250000 -44.849487 14.949493
v -4.250000 -46.564499 10.809891
v -1.812012 -50.449097 -2.504307
v -1.812012 -49.664597 -2.504307
v -18.794006 -66.899994 -2.504307
v -19.085999 -66.899994 -2.504307
v -19.377991 -66.899994 -2.504307
v -18.682983 -66.899994 -2.504307
v -68.250000 -36.899994 11.999992
vn 1.0000 -0.0000 -0.0000
vn 1.0000 -0.0000 -0.0002
vn -0.0000 -0.0000 -1.0000
vn 0.8730 -0.0000 0.4878
vn 0.8251 0.0808 0.5592
vn 0.7664 0.3572 0.5339
vn 0.7666 0.3569 0.5338
vn 0.2616 0.3332 0.9058
vn 0.8837 -0.4680 0.0006
vn -0.0000 0.8685 0.4957
vn -0.0000 0.9239 0.3827
vn -1.0000 -0.0000 -0.0000
vn -1.0000 -0.0000 -0.0001
vn -1.0000 -0.0000 0.0001
vn 0.8169 -0.0000 0.5768
vn 0.8677 -0.1094 0.4848
vn 0.8169 -0.0000 0.5767
vn -0.0000 -0.0000 1.0000
vn -0.7252 0.4300 0.5378
vn -0.7249 0.4303 0.5379
vn -0.0000 0.7459 0.6661
vn -0.0973 0.6963 0.7111
vn -0.3416 0.4495 0.8254
vn -0.9997 -0.0249 -0.0000
vn -0.9786 -0.0000 0.2056
vn -0.9787 -0.0000 0.2055
vn -0.0000 0.6996 0.7145
vn -0.0000 -1.0000 -0.0000
vn -0.9342 -0.0977 0.3432
vn -0.0000 0.6775 0.7356
vn 0.5060 0.2533 0.8245
vn 0.1601 0.6906 0.7053
vn -0.9220 -0.0000 0.3873
vn -0.9997 -0.0251 -0.0002
vn 0.1600 0.6906 0.7053
vn 0.5058 0.2536 0.8245
vn 0.8028 -0.1265 0.5827
vn -0.8447 -0.4458 -0.2962
vn -0.0000 -0.3827 -0.9239
vn -0.0000 0.4222 0.9065
vn -0.0000 0.3180 0.9481
vn -0.0300 -0.0000 0.9996
vn -0.0282 -0.0281 0.9992
vn -0.0000 -0.0326 0.9995
vn -0.0000 -0.9081 -0.4187
vn -0.0000 -0.9810 -0.1939
vn -0.0000 -0.9239 -0.3827
vn -0.2017 0.9795 -0.0000
vn -0.0000 1.0000 -0.0000
vn -0.9984 0.0561 -0.0000
vn -0.9911 -0.1329 -0.0000
vn -0.9195 -0.3930 -0.0000
vn -0.3714 -0.9285 -0.0000
vn -0.3506 -0.9365 -0.0000
vn -0.2815 -0.9596 -0.0000
vn -0.0950 -0.9955 -0.0000
vn -0.0618 -0.9981 -0.0000
vn -0.9885 -0.1511 -0.0000
vn -0.9862 0.1655 -0.0000
vn -0.8303 -0.5573 -0.0000
vn 0.0742 -0.0000 0.9972
vn -0.4779 -0.8784 -0.0000
vn -0.5200 -0.8469 0.1110
vn -0.9691 -0.2468 -0.0000
vn -0.0000 0.0534 -0.9986
vn -0.1209 0.9927 -0.0000
vn -0.2815 0.9596 -0.0000
vn -0.3341 0.9425 -0.0000
vn -0.3714 0.9285 -0.0000
vn -0.3846 0.9231 -0.0000
vn -0.8461 0.5330 -0.0000
vn -0.0000 0.7126 -0.7015
vn 0.0342 0.7069 -0.7065
vn -0.0000 0.9959 -0.0902
vn -0.0000 0.9239 -0.3827
vn -0.0000 0.8997 -0.4364
vn -0.0000 0.8998 -0.4364
vn -0.0000 0.3827 -0.9239
vn -0.9910 0.0343 0.1292
vn -0.9908 0.0342 0.1306
vn -0.9892 -0.0000 0.1468
vn -0.9708 0.1261 0.2039
vn -0.9786 -0.0000 0.2055
vn -0.9752 -0.0831 0.2049
vn -0.0000 0.5443 -0.8389
vn 0.8353 0.1394 0.5318
vn 0.8355 0.1392 0.5316
vn -0.1347 -0.9842 0.1150
vn -0.9751 -0.0815 0.2063
vn -0.1346 -0.9842 0.1151
vn -0.1355 -0.9908 -0.0000
vn -0.9964 -0.0850 -0.0000
vn 0.4422 -0.8969 -0.0000
vn 0.2292 -0.9385 0.2584
vn 0.2291 -0.9385 0.2582
vn 0.8730 -0.0000 0.4877
vn 0.8650 0.1345 0.4833
vn -0.0000 -0.4701 0.8826
vn -0.0000 -0.9981 0.0620
vn -0.0000 -0.9239 0.3827
vn -0.0000 -0.3828 0.9239
vn 0.3637 -0.3115 0.8779
vn 0.5654 -0.0000 0.8249
vn 0.0716 -0.9974 -0.0000
vn 0.8254 0.1191 0.5519
vn -0.0001 -1.0000 -0.0000
vn 0.1421 0.9132 -0.3820
vn -0.2502 0.3705 -0.8945
vn -0.9752 -0.0832 0.2050
vn 0.2228 0.5573 -0.7999
vn 0.0480 0.9918 -0.1186
vn -0.0000 0.9929 -0.1187
vn 0.2878 0.8098 -0.5112
vn -0.9627 -0.2696 0.0244
vn -0.0428 -0.0000 -0.9991
vn -0.0000 -0.1020 0.9948
vn -0.8304 -0.5572 -0.0000
vn -0.0633 0.9980 -0.0000
vn -0.2318 0.9728 -0.0000
vn -0.0000 0.0375 0.9993
vn 0.0461 0.0458 0.9979
vn 0.0422 -0.0000 0.9991
vn 0.2383 -0.8089 -0.5374
vn 0.8836 -0.4682 -0.0000
s 0
f 1//1 2//1 3//1
f 1//1 3//1 4//1
f 1//1 4//1 5//1
f 6//1 1//1 5//1
f 6//2 5//2 7//2
f 6//3 7//3 8//3
f 9//3 6//3 8//3
f 9//3 8//3 10//3
f 10//4 11//4 9//4
f 12//5 9//5 11//5
f 12//6 11//6 2//6
f 12//7 2//7 13//7
f 6//3 12//3 13//3
f 6//3 13//3 14//3
f 15//3 6//3 14//3
f 15//8 14//8 1//8
f 13//9 1//9 14//9
f 2//1 11//1 16//1
f 16//10 11//10 17//10
f 16//10 17//10 18//10
f 3//11 16//11 18//11
f 3//11 18//11 19//11
f 19//12 18//12 20//12
f 21//12 19//12 20//12
f 22//13 21//13 20//13
f 22//14 20//14 23//14
f 23//3 24//3 22//3
f 24//3 8//3 22//3
f 8//3 24//3 25//3
f 24//15 26//15 25//15
f 10//16 25//16 26//16
f 24//17 27//17 26//17
f 26//18 27//18 28//18
f 11//18 26//18 28//18
f 11//18 28//18 29//18
f 11//18 29//18 30//18
f 11//18 30//18 31//18
f 11//18 31//18 32//18
f 33//19 32//19 31//19
f 33//20 31//20 34//20
f 35//3 33//3 34//3
f 34//21 30//21 35//21
f 36//22 35//22 30//22
f 36//3 37//3 35//3
f 37//3 36//3 38//3
f 37//3 38//3 39//3
f 37//23 39//23 40//23
f 37//24 40//24 32//24
f 32//12 40//12 20//12
f 17//12 32//12 20//12
f 41//25 20//25 40//25
f 41//26 40//26 42//26
f 43//3 41//3 42//3
f 44//3 43//3 42//3
f 43//3 44//3 36//3
f 36//27 29//27 43//27
f 45//27 43//27 29//27
f 36//3 44//3 46//3
f 46//28 44//28 40//28
f 38//29 46//29 40//29
f 41//3 43//3 45//3
f 41//3 45//3 47//3
f 48//3 41//3 47//3
f 48//30 47//30 28//30
f 48//3 23//3 41//3
f 23//3 48//3 49//3
f 48//31 27//31 49//31
f 45//32 28//32 47//32
f 44//25 42//25 40//25
f 39//33 38//33 40//33
f 38//3 36//3 46//3
f 35//3 37//3 33//3
f 37//34 32//34 33//34
f 34//21 31//21 30//21
f 36//27 30//27 29//27
f 45//35 29//35 28//35
f 48//36 28//36 27//36
f 24//37 49//37 27//37
f 24//3 23//3 49//3
f 41//38 23//38 20//38
f 22//39 8//39 21//39
f 21//12 50//12 19//12
f 4//40 19//40 50//40
f 4//41 50//41 51//41
f 50//41 52//41 51//41
f 51//18 52//18 53//18
f 51//18 53//18 54//18
f 55//18 51//18 54//18
f 55//18 54//18 56//18
f 55//18 56//18 57//18
f 58//18 55//18 57//18
f 58//18 57//18 59//18
f 58//18 59//18 60//18
f 61//18 58//18 60//18
f 61//18 60//18 62//18
f 63//18 61//18 62//18
f 63//18 62//18 64//18
f 63//18 64//18 65//18
f 63//18 65//18 66//18
f 63//18 66//18 67//18
f 63//18 67//18 68//18
f 63//18 68//18 69//18
f 63//18 69//18 70//18
f 63//18 70//18 71//18
f 63//18 71//18 51//18
f 63//18 51//18 72//18
f 73//42 63//42 72//42
f 73//43 72//43 74//43
f 73//44 74//44 55//44
f 74//18 72//18 51//18
f 71//1 75//1 51//1
f 76//1 51//1 75//1
f 76//45 75//45 77//45
f 76//45 77//45 78//45
f 76//46 78//46 79//46
f 76//1 79//1 5//1
f 79//47 80//47 5//47
f 5//47 80//47 21//47
f 79//46 78//46 80//46
f 80//12 78//12 50//12
f 78//12 77//12 50//12
f 77//3 75//3 81//3
f 82//3 77//3 81//3
f 82//3 81//3 83//3
f 84//3 82//3 83//3
f 84//3 83//3 85//3
f 84//48 85//48 86//48
f 87//48 84//48 86//48
f 53//18 87//18 86//18
f 53//49 84//49 87//49
f 54//50 86//50 85//50
f 88//50 54//50 85//50
f 89//51 54//51 88//51
f 83//3 89//3 88//3
f 83//3 90//3 89//3
f 57//52 89//52 90//52
f 57//53 90//53 91//53
f 83//3 91//3 90//3
f 83//3 92//3 91//3
f 59//54 91//54 92//54
f 83//3 93//3 92//3
f 60//55 92//55 93//55
f 83//3 94//3 93//3
f 62//56 93//56 94//56
f 83//3 95//3 94//3
f 64//57 94//57 95//57
f 65//28 95//28 83//28
f 83//3 88//3 85//3
f 53//49 82//49 84//49
f 81//3 96//3 83//3
f 66//58 83//58 96//58
f 81//3 97//3 96//3
f 67//12 96//12 97//12
f 81//3 98//3 97//3
f 68//59 97//59 98//59
f 81//3 99//3 98//3
f 69//49 98//49 99//49
f 69//49 99//49 100//49
f 69//18 100//18 101//18
f 69//18 101//18 102//18
f 69//18 102//18 103//18
f 69//18 103//18 104//18
f 69//18 104//18 105//18
f 69//18 105//18 106//18
f 69//18 106//18 107//18
f 69//18 107//18 108//18
f 107//12 109//12 108//12
f 108//60 109//60 110//60
f 108//18 110//18 70//18
f 110//18 111//18 70//18
f 112//61 70//61 111//61
f 112//62 111//62 113//62
f 112//63 113//63 114//63
f 115//14 112//14 114//14
f 116//12 115//12 114//12
f 117//12 116//12 114//12
f 118//12 117//12 114//12
f 118//64 114//64 119//64
f 114//65 120//65 119//65
f 119//3 120//3 121//3
f 81//3 119//3 121//3
f 81//3 121//3 122//3
f 81//3 122//3 123//3
f 81//3 123//3 124//3
f 81//3 124//3 125//3
f 81//3 125//3 126//3
f 81//3 126//3 127//3
f 101//66 127//66 126//66
f 102//67 126//67 125//67
f 103//68 125//68 124//68
f 104//69 124//69 123//69
f 106//70 123//70 122//70
f 107//71 122//71 121//71
f 128//72 119//72 81//72
f 129//72 128//72 81//72
f 130//73 129//73 81//73
f 130//1 81//1 131//1
f 130//1 131//1 132//1
f 130//1 132//1 133//1
f 130//74 133//74 134//74
f 134//75 133//75 116//75
f 133//75 135//75 116//75
f 132//1 135//1 133//1
f 132//1 136//1 135//1
f 135//76 136//76 137//76
f 135//77 137//77 115//77
f 138//78 115//78 137//78
f 138//78 137//78 139//78
f 139//3 140//3 138//3
f 138//3 140//3 141//3
f 140//79 115//79 141//79
f 140//80 142//80 115//80
f 143//12 115//12 142//12
f 144//12 143//12 142//12
f 145//81 144//81 142//81
f 145//82 146//82 144//82
f 147//83 144//83 146//83
f 146//3 139//3 147//3
f 139//3 148//3 147//3
f 147//26 148//26 149//26
f 150//84 149//84 148//84
f 151//3 150//3 148//3
f 150//3 151//3 152//3
f 153//3 150//3 152//3
f 152//85 136//85 153//85
f 153//86 136//86 154//86
f 153//87 154//87 155//87
f 155//3 156//3 153//3
f 156//3 155//3 157//3
f 157//88 158//88 156//88
f 150//89 156//89 158//89
f 157//90 159//90 158//90
f 160//91 158//91 159//91
f 160//91 159//91 161//91
f 160//18 161//18 162//18
f 160//18 162//18 163//18
f 149//12 163//12 162//12
f 144//12 149//12 162//12
f 158//92 163//92 149//92
f 162//18 161//18 164//18
f 165//18 162//18 164//18
f 165//93 164//93 166//93
f 167//94 165//94 166//94
f 167//95 166//95 168//95
f 167//3 168//3 169//3
f 169//3 168//3 170//3
f 169//3 170//3 171//3
f 169//96 171//96 165//96
f 172//4 165//4 171//4
f 171//3 173//3 172//3
f 172//3 173//3 174//3
f 172//3 174//3 175//3
f 175//97 176//97 172//97
f 175//97 154//97 176//97
f 154//1 177//1 176//1
f 176//98 177//98 143//98
f 176//98 143//98 162//98
f 177//99 178//99 143//99
f 143//12 178//12 179//12
f 180//100 179//100 178//100
f 132//100 179//100 180//100
f 132//101 112//101 179//101
f 180//99 178//99 177//99
f 180//1 177//1 136//1
f 175//102 181//102 154//102
f 181//103 182//103 154//103
f 181//3 183//3 182//3
f 182//3 183//3 184//3
f 185//3 182//3 184//3
f 185//28 184//28 159//28
f 182//3 185//3 155//3
f 183//28 159//28 184//28
f 183//3 181//3 186//3
f 183//28 186//28 161//28
f 186//28 174//28 161//28
f 181//3 174//3 186//3
f 174//3 181//3 175//3
f 174//28 173//28 161//28
f 170//28 161//28 173//28
f 170//28 166//28 161//28
f 172//4 176//4 165//4
f 171//3 170//3 173//3
f 170//104 168//104 166//104
f 167//105 169//105 165//105
f 165//18 176//18 162//18
f 166//28 164//28 161//28
f 183//106 161//106 159//106
f 160//92 163//92 158//92
f 157//28 185//28 159//28
f 155//3 185//3 157//3
f 182//107 155//107 154//107
f 154//1 136//1 177//1
f 153//3 156//3 150//3
f 152//108 151//108 137//108
f 150//109 158//109 149//109
f 151//3 148//3 139//3
f 147//25 149//25 144//25
f 145//3 139//3 146//3
f 144//12 162//12 143//12
f 143//12 179//12 115//12
f 145//81 142//81 140//81
f 140//3 139//3 145//3
f 151//78 139//78 137//78
f 138//110 141//110 115//110
f 152//85 137//85 136//85
f 132//1 180//1 136//1
f 132//101 131//101 112//101
f 131//1 81//1 71//1
f 130//111 134//111 129//111
f 129//112 134//112 117//112
f 129//112 117//112 128//112
f 128//113 117//113 119//113
f 120//3 109//3 121//3
f 120//3 113//3 109//3
f 113//3 187//3 109//3
f 110//28 187//28 113//28
f 118//114 119//114 117//114
f 134//75 116//75 117//75
f 135//76 115//76 116//76
f 179//12 112//12 115//12
f 114//115 113//115 120//115
f 131//116 70//116 112//116
f 110//28 113//28 111//28
f 110//117 109//117 187//117
f 107//12 121//12 109//12
f 106//71 122//71 107//71
f 105//70 123//70 106//70
f 104//69 123//69 105//69
f 103//68 124//68 104//68
f 102//67 125//67 103//67
f 101//66 126//66 102//66
f 100//118 127//118 101//118
f 100//118 99//118 127//118
f 81//3 127//3 99//3
f 52//119 77//119 82//119
f 76//1 5//1 51//1
f 71//1 81//1 75//1
f 131//116 71//116 70//116
f 69//18 108//18 70//18
f 68//59 98//59 69//59
f 67//12 97//12 68//12
f 66//58 96//58 67//58
f 65//28 83//28 66//28
f 64//57 95//57 65//57
f 62//56 94//56 64//56
f 73//120 61//120 63//120
f 60//55 93//55 62//55
f 73//121 58//121 61//121
f 59//54 92//54 60//54
f 57//53 91//53 59//53
f 73//122 55//122 58//122
f 56//52 89//52 57//52
f 56//51 54//51 89//51
f 55//18 74//18 51//18
f 53//18 86//18 54//18
f 52//119 82//119 53//119
f 50//12 77//12 52//12
f 21//12 80//12 50//12
f 18//12 17//12 20//12
f 11//18 32//18 17//18
f 10//4 26//4 11//4
f 8//3 25//3 10//3
f 6//3 9//3 12//3
f 7//39 21//39 8//39
f 7//39 5//39 21//39
f 6//123 15//123 1//123
f 4//1 51//1 5//1
f 4//40 3//40 19//40
f 2//1 16//1 3//1
f 13//124 2//124 1//124
